<svg xmlns="http://www.w3.org/2000/svg" viewBox="0 0 800 800"><defs><radialGradient id="pow" cx="40%" cy="35%"><stop stop-color="#ffd8df"/><stop offset=".55" stop-color="#ee9aac"/><stop offset="1" stop-color="#c96f86"/></radialGradient><linearGradient id="glass" x1="0" y1="0" x2="1" y2="1"><stop stop-color="#fff" stop-opacity=".92"/><stop offset=".45" stop-color="#ffd5e4" stop-opacity=".55"/><stop offset="1" stop-color="#c8a3d9" stop-opacity=".32"/></linearGradient><filter id="sh"><feDropShadow dx="0" dy="28" stdDeviation="28" flood-color="#5c2345" flood-opacity=".22"/></filter></defs><rect width="800" height="800" rx="92" fill="#fff6fa"/><g filter="url(#sh)"><ellipse cx="400" cy="604" rx="250" ry="62" fill="#6d3550" opacity=".12"/><path d="M170 320c0-105 103-190 230-190s230 85 230 190v210c0 105-103 190-230 190S170 635 170 530Z" fill="url(#glass)" stroke="#fff" stroke-opacity=".75" stroke-width="10"/><ellipse cx="400" cy="466" rx="178" ry="136" fill="url(#pow)"/><ellipse cx="400" cy="451" rx="164" ry="122" fill="none" stroke="#fff" stroke-opacity=".42" stroke-width="7"/><path d="M190 320c12-88 104-160 210-160s198 72 210 160c-67 36-138 54-210 54s-143-18-210-54Z" fill="#fff" opacity=".22"/></g></svg>